<?xml version="1.0" encoding="utf-8"?>
<!-- Generator: Adobe Illustrator 22.1.0, SVG Export Plug-In . SVG Version: 6.00 Build 0)  -->
<svg version="1.1" xmlns="http://www.w3.org/2000/svg" xmlns:xlink="http://www.w3.org/1999/xlink" x="0px" y="0px"
	 viewBox="0 0 500 500" style="enable-background:new 0 0 500 500;" xml:space="preserve">
<style type="text/css">
	.st0{opacity:0.2;fill:#D9EEFF;}
	.st1{fill:#ABD5FD;}
	.st2{fill:#C1E4FF;}
	.st3{fill:#FFFFFF;}
	.st4{fill:#D9EEFF;}
	.st5{fill:#1BBC9D;}
	.st6{fill:#27DEBF;}
	.st7{fill:#2460DA;}
	.st8{fill:#4C9FFF;}
	.st9{fill:#2343BA;}
	.st10{fill:#002176;}
	.st11{fill:#FFA8A7;}
	.st12{fill:#F28F8F;}
	.st13{fill:#FFDB4C;}
	.st14{fill:#FFC000;}
</style>
<g id="Objects">
	<g id="XMLID_497_">
		<path id="XMLID_413_" class="st0" d="M125.2,389.2c68.9,32.8,180.6,32.8,249.5,0c68.9-32.8,68.9-86.1,0-118.9
			c-68.9-32.8-180.6-32.8-249.5,0C56.3,303.2,56.3,356.4,125.2,389.2z"/>
		<path id="XMLID_362_" class="st1" d="M217.9,358.1l94-54.3c1-0.6,1-1.4,0-2l-8.7-5c-1-0.6-2.5-0.6-3.5,0l-94,54.3
			c-1,0.6-1,1.4,0,2l8.7,5C215.4,358.6,216.9,358.6,217.9,358.1z"/>
		<ellipse id="XMLID_418_" class="st1" cx="374.5" cy="354" rx="23" ry="11"/>
		<g id="XMLID_292_">
			<g id="XMLID_378_">
				<path id="XMLID_372_" class="st2" d="M120,355.6l8.1-4.7c0,0,6.7-4.9,10-14.1c2.5-6.9,2.2-12.2,0.4-14.8
					c-2.2-3.2-7.9-2.7-8.2,4.2C129.8,339.7,125.9,349,120,355.6z"/>
				<path class="st3" d="M120,356.1c-0.2,0-0.3-0.1-0.4-0.2c-0.2-0.2-0.1-0.5,0.1-0.7c18.8-13,15.2-31.1,15.1-31.3
					c-0.1-0.3,0.1-0.5,0.4-0.6c0.3-0.1,0.5,0.1,0.6,0.4c0,0.2,3.8,18.9-15.5,32.3C120.2,356.1,120.1,356.1,120,356.1z"/>
			</g>
			<g id="XMLID_379_">
				<path id="XMLID_364_" class="st4" d="M103.7,365c0,0-2.8-2.3-2.1-5.4c0.7-3.1,2.5-5.4-0.6-9.4c-3.1-4-3.9-9.4-0.3-12.3
					c2.9-2.2,7.3,0.9,8.9-5c1.2-4.3,0.8-13.9,6.3-17.1c5.5-3.2,9,1.6,8.1,8.1c-0.8,5.8-1.8,11.4-1,13c1.6,3,4.4,2.6,4.3,8.1
					c-0.1,5.1-4.9,9.3-4.9,9.3L103.7,365z"/>
				<path class="st3" d="M113,360.1c-0.2,0-0.5-0.2-0.5-0.4c-1.4-11.8,2-32.3,4.8-38.4c0.1-0.3,0.4-0.4,0.7-0.2
					c0.3,0.1,0.4,0.4,0.2,0.7c-2.8,6-6.1,26.5-4.7,37.8C113.5,359.8,113.3,360.1,113,360.1C113,360.1,113,360.1,113,360.1z"/>
				<path class="st3" d="M112.7,350.9c-0.1,0-0.1,0-0.2-0.1c-3.5-1.7-5.7-7.7-5.8-8c-0.1-0.3,0-0.5,0.3-0.6c0.3-0.1,0.5,0,0.6,0.3
					c0,0.1,2.2,5.9,5.3,7.4c0.2,0.1,0.4,0.4,0.2,0.7C113.1,350.8,112.9,350.9,112.7,350.9z"/>
				<path class="st3" d="M112.7,354.9c-0.2,0-0.4-0.1-0.5-0.3c-0.1-0.3,0-0.5,0.3-0.6c5.8-2.3,9.5-9.3,9.5-9.4
					c0.1-0.2,0.4-0.3,0.7-0.2c0.2,0.1,0.3,0.4,0.2,0.7c-0.2,0.3-3.9,7.4-10,9.8C112.8,354.9,112.7,354.9,112.7,354.9z"/>
			</g>
		</g>
		<g id="XMLID_366_">
			<path id="XMLID_374_" class="st4" d="M316.8,301.1c0,0-4.4-7.1-4.8-14.8c-0.4-7.7,1.3-10.9,3.6-11.8c2.3-0.9,2.5,1.9,3.7,3.6
				c1.2,1.7,3.6,0.7,4.5-4.5c0.9-5.2,4.2-14,11-15.7c7.5-1.9,3.5,6.9,1.6,10.4c-1.9,3.4-3.4,8.1-2.1,9.4c1.2,1.3,3.2-1.1,5,1.1
				c2.2,2.6-4.7,12.1-8.7,14.4L316.8,301.1z"/>
			<path class="st3" d="M322.8,298.1C322.8,298.1,322.8,298.1,322.8,298.1c-0.3,0-0.5-0.3-0.5-0.5c1.1-20.5,11.1-34.7,11.2-34.8
				c0.2-0.2,0.5-0.3,0.7-0.1c0.2,0.2,0.3,0.5,0.1,0.7c-0.1,0.1-9.9,14.1-11,34.3C323.3,297.9,323.1,298.1,322.8,298.1z"/>
			<path class="st3" d="M323.4,292.2c-0.1,0-0.2,0-0.2-0.1c-2.8-1.5-4.4-6.1-4.4-6.3c-0.1-0.3,0.1-0.5,0.3-0.6
				c0.3-0.1,0.5,0.1,0.6,0.3c0,0,1.5,4.4,4,5.8c0.2,0.1,0.3,0.4,0.2,0.7C323.7,292.1,323.5,292.2,323.4,292.2z"/>
			<path class="st3" d="M323.9,289.2c-0.2,0-0.4-0.2-0.5-0.4c-0.1-0.3,0.1-0.5,0.4-0.6c7.2-1.8,9.7-5.6,9.7-5.6
				c0.1-0.2,0.5-0.3,0.7-0.2c0.2,0.1,0.3,0.5,0.2,0.7c-0.1,0.2-2.7,4.1-10.3,6.1C323.9,289.2,323.9,289.2,323.9,289.2z"/>
		</g>
		<g id="XMLID_296_">
			<g id="XMLID_381_">
				<path id="XMLID_363_" class="st5" d="M208,285.5c0,0-9.6-2.3-10.1-20.3c-0.5-19.4,2.3-42-9-43.8c-11.3-1.8-17.7,12-17.5,28.1
					c0.1,14.1,5.8,44.8,36.6,50.9L208,285.5z"/>
				<path class="st3" d="M208,298.6C208,298.6,208,298.6,208,298.6c-7-1.3-12.6-5.1-16.8-11.3c-12.4-18.5-8.5-53.1-7.2-59.2
					c0.1-0.3,0.3-0.4,0.6-0.4c0.3,0.1,0.4,0.3,0.4,0.6c-1.3,6-5.2,40.2,7.1,58.4c4,6,9.4,9.7,16.1,10.9c0.3,0,0.5,0.3,0.4,0.6
					C208.5,298.4,208.3,298.6,208,298.6z"/>
			</g>
			<g id="XMLID_380_">
				<path id="XMLID_361_" class="st6" d="M208,344.7c-9.9,1.3-26,1.3-35.3-6c-9.3-7.3-7.3-13.6-3.8-16.3c3.6-2.6,6.7-5.6,0.5-11.5
					c-6.1-5.8-16-15.2-19.2-29.3c-3.2-14.1-1.6-22.9,4.7-25.8c6.1-2.8,7.7,1.7,11.4,11c3.7,9.3,12.1,1.3,19.3,4.2
					c7.2,2.9,6.9,8.7,7.3,13.6c0.5,5,2.8,6.3,6.9,6.3c4.1,0,8.1,2.3,8.1,7L208,344.7z"/>
				<path class="st3" d="M208,328.3c0,0-0.1,0-0.1,0c-0.4-0.1-10.7-3.1-25.6-16.8c-15.9-14.6-23.4-36.5-23.5-36.7
					c-0.1-0.3,0.1-0.5,0.3-0.6c0.3-0.1,0.5,0.1,0.6,0.3c0.1,0.2,7.5,21.9,23.2,36.3c14.7,13.5,25.1,16.6,25.2,16.6
					c0.3,0.1,0.4,0.4,0.3,0.6C208.4,328.2,208.2,328.3,208,328.3z"/>
				<path class="st3" d="M186.4,315c-0.2,0-0.4-0.1-0.5-0.3c-3.2-8.2-3.9-25.9-4-26.6c0-0.3,0.2-0.5,0.5-0.5c0.3,0,0.5,0.2,0.5,0.5
					c0,0.2,0.8,18.2,3.9,26.3c0.1,0.3,0,0.5-0.3,0.6C186.6,315,186.5,315,186.4,315z"/>
				<path class="st3" d="M186.3,326.9c-1.6,0-2.6-0.1-2.8-0.1c-0.3,0-0.5-0.3-0.4-0.6c0-0.3,0.3-0.5,0.6-0.4c0.1,0,9.4,1.1,13.7-3.3
					c0.2-0.2,0.5-0.2,0.7,0c0.2,0.2,0.2,0.5,0,0.7C195,326.3,189.6,326.9,186.3,326.9z"/>
			</g>
		</g>
		<g id="XMLID_269_">
			<path id="XMLID_55_" class="st7" d="M309.3,94.2l-84.8,48.9c-2.4,1.4-4.3,4.7-4.3,7.5v201.1c0,2.8,1.9,3.9,4.3,2.5l84.8-48.9
				c2.4-1.4,4.3-4.7,4.3-7.5l0-201.1C313.6,93.9,311.7,92.8,309.3,94.2z"/>
			<path id="XMLID_54_" class="st8" d="M224.5,143.1l84.8-48.9c2.1-1.2,3.9-0.5,4.3,1.7c-0.3-2.6-2.1-5.4-4.3-6.7l-3.5-2
				c-2.4-1.4-6.3-1.4-8.7,0l-84.8,48.9c-1.2,0.7-2.3,1.9-3.1,3.2l12.2,7C222.3,145,223.3,143.8,224.5,143.1z"/>
			<path id="XMLID_53_" class="st9" d="M208,344.7c0,2.8,1.9,6.1,4.3,7.5l3.5,2c2.2,1.2,5.5,1.4,7.9,0.3c-2,0.8-3.6-0.4-3.6-2.8
				V150.6c0-1.4,0.5-2.9,1.3-4.3l-12.2-7c-0.8,1.4-1.3,2.9-1.3,4.3L208,344.7z"/>
			<path id="XMLID_52_" class="st3" d="M226.9,169.9l80.1-46.2c1.4-0.8,2.6-0.2,2.6,1.5l0,148.8c0,1.7-1.2,3.7-2.6,4.5l-80.1,46.3
				c-1.4,0.8-2.6,0.2-2.6-1.5l0-148.8C224.3,172.8,225.4,170.8,226.9,169.9z"/>
			<path id="XMLID_51_" class="st10" d="M266.9,126.3c-0.8,0.5-1.5,1.7-1.5,2.6c0,1,0.7,1.4,1.5,0.9c0.8-0.5,1.5-1.7,1.5-2.6
				C268.4,126.2,267.8,125.8,266.9,126.3z"/>
			<path id="XMLID_50_" class="st9" d="M266.9,308.7c-3.3,1.9-6,6.6-6,10.4c0,3.8,2.7,5.4,6,3.5c3.3-1.9,6-6.6,6-10.4
				C272.9,308.4,270.2,306.8,266.9,308.7z"/>
			<g id="XMLID_47_">
				<path id="XMLID_49_" class="st10" d="M252.5,141.8c-1.7,1-3,3.3-3,5.3c0,1.9,1.4,2.7,3,1.8c1.7-1,3-3.3,3-5.3
					C255.6,141.6,254.2,140.8,252.5,141.8z"/>
				<path id="XMLID_48_" class="st10" d="M260,141.1c0,1.3,1,1.8,2.2,1.1l20-11.6c1.2-0.7,2.2-2.3,2.2-3.6c0-1.3-1-1.8-2.2-1.1
					l-20,11.6C261,138.2,260,139.8,260,141.1z"/>
			</g>
			<path id="XMLID_46_" class="st10" d="M214.8,176.4c1.3,0.8,2.4,2.7,2.4,4.2c0,1.6-1.1,2.2-2.4,1.4c-1.3-0.8-2.4-2.7-2.4-4.2
				S213.4,175.6,214.8,176.4z"/>
			<path id="XMLID_45_" class="st10" d="M214.8,195.1c1.3,0.8,2.4,2.7,2.4,4.2s-1.1,2.2-2.4,1.4c-1.3-0.8-2.4-2.7-2.4-4.2
				C212.3,195,213.4,194.4,214.8,195.1z"/>
			<path id="XMLID_267_" class="st7" d="M214,176.7c1.3,0.8,2.4,2.7,2.4,4.2s-1.1,2.2-2.4,1.4c-1.3-0.8-2.4-2.7-2.4-4.2
				C211.6,176.6,212.7,176,214,176.7z"/>
			<path id="XMLID_44_" class="st7" d="M214,195.5c1.3,0.8,2.4,2.7,2.4,4.2c0,1.6-1.1,2.2-2.4,1.4c-1.3-0.8-2.4-2.7-2.4-4.2
				S212.7,194.7,214,195.5z"/>
		</g>
		<g id="XMLID_294_">
			<path id="XMLID_43_" class="st3" d="M325.8,129.9c0-1.7-1.2-2.3-2.6-1.5l-9.6,5.5l-70.5,40.7c-1.4,0.8-2.6,2.8-2.6,4.5l0,148.8
				c0,1.7,1.2,2.3,2.6,1.5l70.5-40.7l9.6-5.5c1.4-0.8,2.6-2.8,2.6-4.5L325.8,129.9z"/>
			<path class="st4" d="M242,330.3c-0.3,0-0.6-0.1-0.9-0.2c-0.7-0.4-1-1.1-1-2.1l0-148.8c0-1.8,1.3-4,2.8-4.9l70.5-40.7l0.5,0.9
				l-70.5,40.7c-1.3,0.7-2.3,2.6-2.3,4.1l0,148.8c0,0.6,0.2,1.1,0.5,1.2c0.3,0.2,0.8,0.1,1.3-0.2l70.5-40.7l0.5,0.9l-70.5,40.7
				C242.9,330.1,242.4,330.3,242,330.3z"/>
			<path class="st4" d="M313.9,289.1l-0.5-0.9l9.6-5.5c1.3-0.7,2.3-2.6,2.3-4.1l0-148.8c0-0.6-0.2-1.1-0.5-1.2
				c-0.3-0.2-0.8-0.1-1.3,0.2l-9.6,5.5l-0.5-0.9l9.6-5.5c0.9-0.5,1.7-0.6,2.3-0.2c0.7,0.4,1,1.1,1,2.1l0,148.8c0,1.8-1.3,4-2.8,4.9
				L313.9,289.1z"/>
		</g>
		<path id="XMLID_295_" class="st4" d="M391.9,109.8l-1.7,1c0.1-0.6,0.2-1.2,0.2-1.8c0-3.3-2.3-4.7-5.2-3c-0.8,0.5-1.6,1.2-2.3,2
			c0,0,0,0,0,0c0-4.5-3.2-6.3-7.1-4.1c-3.9,2.3-7.1,7.7-7.1,12.2c0,0.2,0,0.4,0,0.7c-0.8-0.1-1.8,0.1-2.9,0.7
			c-2.9,1.7-5.2,5.7-5.2,9.1c0,0.5,0,0.9,0.1,1.3l-0.9,0.5c-2.4,1.4-4.3,4.1-4.3,6c0,1.9,1.9,2.4,4.3,1l32-18.5
			c2.4-1.4,4.3-4.1,4.3-6C396.2,108.9,394.3,108.4,391.9,109.8z"/>
		<g id="XMLID_528_">
			<g id="XMLID_513_">
				<path id="XMLID_42_" class="st1" d="M283.2,164.5c9-5.2,16.2-1,16.2,9.4s-7.3,23-16.2,28.1c-9,5.2-16.2,1-16.2-9.4
					C266.9,182.2,274.2,169.6,283.2,164.5z"/>
				<path id="XMLID_41_" class="st4" d="M283.2,172.6c2.9-1.7,5.3-0.3,5.3,3c0,3.4-2.4,7.4-5.3,9.1c-2.9,1.7-5.3,0.3-5.3-3
					C277.9,178.4,280.3,174.3,283.2,172.6z"/>
				<path id="XMLID_274_" class="st4" d="M293.4,190.5c0-5.5-3.9-7.8-8.7-5l-3,1.7c-4.8,2.8-8.7,9.5-8.7,15v1.5
					c2.8,0.9,6.2,0.4,10-1.8c3.9-2.3,7.5-5.9,10.3-10.2V190.5z"/>
			</g>
			<g id="XMLID_514_">
				<path id="XMLID_482_" class="st8" d="M251.7,224.8l20.9-12.1c1-0.6,1.7-0.1,1.7,1v0.7c0,1.1-0.8,2.4-1.7,3l-20.9,12.1
					c-1,0.6-1.7,0.1-1.7-1v-0.7C250,226.7,250.8,225.4,251.7,224.8z"/>
				<path id="XMLID_483_" class="st2" d="M250.9,239.4l63.3-36.5c0.5-0.3,0.9-0.1,0.9,0.5v7.4c0,0.6-0.4,1.2-0.9,1.5l-63.3,36.5
					c-0.5,0.3-0.9,0.1-0.9-0.5v-7.4C250,240.4,250.4,239.7,250.9,239.4z"/>
				<path id="XMLID_512_" class="st8" d="M251.7,257.7l20.9-12.1c1-0.6,1.7-0.1,1.7,1v0.7c0,1.1-0.8,2.4-1.7,3l-20.9,12.1
					c-1,0.6-1.7,0.1-1.7-1v-0.7C250,259.6,250.8,258.2,251.7,257.7z"/>
				<path id="XMLID_511_" class="st2" d="M250.9,272.2l63.3-36.5c0.5-0.3,0.9-0.1,0.9,0.5v7.4c0,0.6-0.4,1.2-0.9,1.5l-63.3,36.5
					c-0.5,0.3-0.9,0.1-0.9-0.5v-7.4C250,273.2,250.4,272.5,250.9,272.2z"/>
				<path id="XMLID_510_" class="st8" d="M276.1,276.4l25-14.4c1-0.6,1.7-0.1,1.7,1v7.7c0,1.1-0.8,2.4-1.7,3l-25,14.4
					c-1,0.6-1.7,0.1-1.7-1v-7.7C274.4,278.3,275.1,277,276.1,276.4z"/>
			</g>
		</g>
		<g id="XMLID_297_">
			<path id="XMLID_276_" class="st11" d="M335.3,243.9c0,0-12.3-16.9-13-19c-0.6-1.5,0-3.8,0.2-4.8c0.1-1.1,0.3-3.4,0.5-4
				c0.3-1.1-1.2-0.9-2,0.1c-0.8,1.1-1.1,3.1-1.5,3.5c-0.4,0.3-3.7-4.4-5.4-6.6c-1.7-2.2-2.8-3.5-3.8-2.7c-0.8,0.6-0.2,1.9,1,3.8
				c1.2,1.9,1.8,2.8,2,3.2c0.2,0.4-0.8,0.4-1.4,1.3c-0.4,0.7,0,1.7-0.6,2.2c-0.6,0.5-1.1,1.4-0.5,2.5c0.8,1.3,2.4,3.2,4.2,4.5
				c1.8,1.3,2.6,1.7,3.7,3.5c1.1,1.7,10.9,19.4,11.5,20.5c0.7,1.1,1.9,3.2,3.9,3.3c1.9,0.1,17.7-13.5,18.5-14.2
				c2.6-2.2,3.4-2.5,3.9-0.5c0.1,0.6,0.2,1.3,0.3,2.1c0.3,2.5,2,11.3,2,11.3s8,3.9,14.6,2c6.6-1.9,8.8-4.7,8.8-4.7l-3.3-5.4
				c0.9-2.2,5-11.2,6.3-17.4l-20.6-3.3c-0.4-0.1-1.1-0.3-2-0.5c-1.1-0.3-4-1.3-6.2,0.6C349.4,231,335.3,243.9,335.3,243.9"/>
			<g id="XMLID_302_">
				<path id="XMLID_287_" class="st10" d="M376.1,347.8l-3.7,5.1c0,0,1.7,1,5.4,1.1c3.3,0.1,4.2-1,4.3-1.2c0.6-1.2-0.3-3.4-0.6-5.2
					L376.1,347.8z"/>
				<path id="XMLID_284_" class="st10" d="M372.7,350.5c0,0-4.5-0.3-7.6-0.7c-3.1-0.4-5.5,1.1-4.8,2.4c0.7,1.3,2.4,2.3,5.1,3.2
					c2.3,0.8,5,1.3,7.4,2c2.4,0.7,4,1.6,5.4,1.1c1.5-0.5,2.2-1.1,2.1-2.3c-0.1-1.1-1.2-4.7-1.2-4.7L372.7,350.5z"/>
				<path id="XMLID_288_" class="st12" d="M382.1,342.6c0,0-0.6,4.7-0.6,5.7c0,1-4.5,1.3-5.4-0.5l-0.1-5.7L382.1,342.6z"/>
				<path id="XMLID_285_" class="st11" d="M377.6,345.5l1.6,7.1c0,0,0.2,0.9-3.5,1.4c-3.7,0.5-9.5-1.9-10.4-2.4
					c-1-0.5-1.1-1.5,2.5-1.3c3.6,0.2,4.9,0.2,4.9,0.2l-1.2-3.1L377.6,345.5z"/>
				<path id="XMLID_282_" class="st12" d="M385.2,228l2.5-0.7c0,0,5.3,16.9,5.9,18.5c0.6,1.6,1.3,3.4,0.1,5.4
					c-1.4,2.4-8.6,12-8.6,12l-4.6-4.5l5.2-9.5l-4.6-9.3L385.2,228z"/>
				<path id="XMLID_280_" class="st10" d="M359,206.1c0,0-2-3.3,0.1-7.3c2.5-4.7,8.2-7,14.9-6.1c3.1,0.4,6.8,3,8.8,6.9
					c2.2,4.3,2.4,12.9,3,16.2L359,206.1z"/>
				<path id="XMLID_14181_" class="st11" d="M358.8,207.9c0,0-1.6,3.1-1.3,3.3c0.3,0.3,1.3,0.5,1.3,0.5L358.8,207.9z"/>
				<path id="XMLID_270_" class="st11" d="M363.7,198.3c-1.7,1.1-4.7,3.2-4.9,10.1c-0.1,7,0.9,9.3,1.9,10.1c0.7,0.5,4.8,0.3,6.6-0.1
					c1.8-0.4,6.8-2.9,8.7-6.7c2.1-4.5,1.7-11-1.5-12.9C370,196,365.2,197.3,363.7,198.3z"/>
				<path id="XMLID_283_" class="st7" d="M382.1,250.8c3.1,4.8,6,9,6.6,14.4c1.3,11.4-3,24.4-3.9,32.8c0,0,2.9,3.8,2.9,8.2
					c0,3.5-5.6,36.3-5.6,36.3s-4.1,1.2-6.1-0.5l-3.9-60.4l2-7.4L382.1,250.8z"/>
				<path id="XMLID_40_" class="st9" d="M372.1,281.7l2-7.4c0,0,5.6-1.4,11-4.4c0,0-2.1,3.8-8.1,5.9l-3.1,9.5l-0.3,21.6L372.1,281.7
					z"/>
				<path id="XMLID_281_" class="st7" d="M382.1,250.8c1.7,2.7,5.6,7.3,4.8,11.7c-1,5.4-3.9,9.1-12.7,11.8l-8.3,30
					c0,0,4.3,4,5.6,7.9c1.3,3.8,6.1,33.4,6.1,33.4s-1.5,2.4-6.1,1.8c0,0-16.2-37-17.4-39.4c-1.1-2.4-1.9-4.2-1.4-8
					c0.5-3.9,6-46.4,6-46.4L382.1,250.8z"/>
				<path id="XMLID_286_" class="st13" d="M385.2,228l-20.6-3.3c-0.4-0.1-1.1-0.3-2-0.5l0,0c0,0-0.9,12.9-6.2,15.9h0
					c0.1,0.6,0.2,1.3,0.3,2.1c0.3,2.5,2,11.3,2,11.3s8,3.9,14.6,2c6.6-1.9,8.8-4.7,8.8-4.7l-3.3-5.4
					C379.8,243.2,383.9,234.3,385.2,228z"/>
				<path id="XMLID_543_" class="st14" d="M379.8,243.4c-0.1,0.2-6.6,3.7-8.6,4.2c3.1-0.2,5.6-0.9,7.7-2.1L379.8,243.4z"/>
				<path id="XMLID_277_" class="st10" d="M363.2,198.6c0,0-1,6.5,1.4,10.3c0,0,0.9-2.6,3.1-2.1c2.2,0.5,2.3,3.4,0.8,5
					c-1.5,1.6-3.2,1-3.2,1s-0.3,4.7-0.5,8.6c-0.2,3.8-1.2,12.5,3.2,16c4.4,3.5,15.5,4.7,20.8-2.6c2.9-4.1-1-11.2-2.7-19.2
					c-1.6-7.4-2.6-18.3-10.4-20.1C367.6,193.9,363.2,198.6,363.2,198.6z"/>
			</g>
		</g>
		<g id="XMLID_272_">
			<g id="XMLID_561_">
				<path id="XMLID_562_" class="st1" d="M179.1,137.5l-1.1-6.2l-5.6,3.7c-0.6-1.1-1.3-1.9-2.1-2.6l2.7-7.2l-5-1.1l-3.7,7
					c-1.2,0.2-2.5,0.6-3.8,1.2L159,127l-5.9,4.7l0.4,6.2c-1.2,1.3-2.3,2.8-3.3,4.3l-4.9-0.2l-3.4,7.7l4.2,1.8
					c-0.4,1.7-0.7,3.3-0.8,4.9l-5.3,4.9l1.1,6.2l5.6-3.7c0.6,1.1,1.3,1.9,2.1,2.6l-2.7,7.2l5,1.1l5.2-5.1c1.2-0.2,0.9-2.5,2.2-3.1
					l1.6,5.3l5.9-4.7l-0.2-2.4c1.2-1.3,5.7-4.3,6.7-5.8l1.2-2l3.4-7.7l-1.6-2.9l-1.8-3.8L179.1,137.5z M161,158
					c-4.6,3.6-5.9,4.4-6.8-0.4s1.8-12.1,6.4-15.7c4.6-3.6,6.3-3.8,7.1,0.9S165.6,154.5,161,158z"/>
				<polygon id="XMLID_271_" class="st4" points="168.1,124 174.6,127.8 170.9,134.8 164.4,131 				"/>
				<polygon id="XMLID_144_" class="st4" points="184.6,135 179,138.7 172.5,134.9 178.1,131.3 				"/>
				<polygon id="XMLID_143_" class="st1" points="183.7,152.8 179.5,151 173,147.3 177.2,149.1 				"/>
				<polygon id="XMLID_621_" class="st1" points="146,173.6 152.5,177.4 155.1,170.2 148.7,166.4 				"/>
				<polygon id="XMLID_142_" class="st1" points="166.5,175.5 160,171.8 158.4,166.5 164.9,170.2 				"/>
				<path id="XMLID_516_" class="st2" d="M185.6,141.2l-1.1-6.2l-5.6,3.7c-0.6-1.1-1.3-1.9-2.1-2.6l2.7-7.2l-5-1.1l-3.7,7
					c-1.2,0.2-2.5,0.6-3.8,1.2l-1.6-5.3l-5.9,4.7l0.4,6.2c-1.2,1.3-2.3,2.8-3.3,4.3l-4.9-0.2l-3.4,7.7l4.2,1.8
					c-0.4,1.7-0.7,3.3-0.8,4.9l-5.3,4.9l1.1,6.2l5.6-3.7c0.6,1.1,1.3,1.9,2.1,2.6l-2.7,7.2l5,1.1l3.7-7c1.2-0.2,2.5-0.6,3.8-1.2
					l1.6,5.3l5.9-4.7l-0.4-6.2c1.2-1.3,2.3-2.8,3.3-4.3l4.9,0.2l3.4-7.7l-4.2-1.8c0.4-1.7,0.7-3.3,0.8-4.9L185.6,141.2z
					 M167.5,161.8c-4.6,3.6-8.9,2.6-9.7-2.2s2.2-11.6,6.8-15.1c4.6-3.6,8.9-2.6,9.7,2.2C175.1,151.4,172.1,158.2,167.5,161.8z"/>
				<polygon id="XMLID_603_" class="st4" points="165.5,130.7 159,127 153.1,131.7 159.6,135.4 				"/>
				<polygon id="XMLID_614_" class="st1" points="153.1,131.7 153.5,137.9 160,141.6 159.6,135.4 				"/>
				<polygon id="XMLID_615_" class="st4" points="156.7,145.9 150.2,142.2 145.3,142 151.8,145.7 				"/>
				<polygon id="XMLID_616_" class="st1" points="145.3,142 141.9,149.7 148.4,153.4 151.8,145.7 				"/>
				<polygon id="XMLID_617_" class="st4" points="151.7,160.1 145.2,156.4 139.9,161.3 146.4,165 				"/>
				<polygon id="XMLID_619_" class="st1" points="147.5,171.2 141,167.5 139.9,161.3 146.4,165 				"/>
				<polygon id="XMLID_145_" class="st4" points="174.6,127.8 168.1,124 173.1,125.2 179.5,128.9 				"/>
			</g>
			<g id="XMLID_558_">
				<path id="XMLID_579_" class="st1" d="M150.1,109.2v-9.3l-7.4,3.3c-0.4-1.7-1.1-3.2-2-4.4l4.7-9.4l-5.7-3.3l-5.8,8.8
					c-1.5-0.1-3.1,0-4.8,0.5l-0.8-8.1l-8.1,4.7l-0.8,9c-1.7,1.5-3.3,3.2-4.8,5.1l-5.8-2l-5.7,9.9l4.7,4c-0.9,2.2-1.6,4.5-2,6.7
					l-7.4,5.2v9.3l7.4-3.3c0.4,1.7,1.1,3.2,2,4.4l-4.7,9.4l5.7,3.3l5.8-8.8c1.5,0.1,3.1,0,4.8-0.5l0.8,8.1l8.1-4.7l0.8-9
					c2.4-0.8,5-2.7,6.5-4.5l4.2,1.5l5.7-9.9l-3.5-3c0.9-2.2,1-5.8,0.8-7.7L150.1,109.2z M124.2,132.5c-6.2,3.6-10,1-10-6.1
					c0-7.1,5.1-15.9,11.3-19.5c6.2-3.6,9.9-1,9.9,6.2C135.4,120.2,130.3,128.9,124.2,132.5z"/>
				<polygon id="XMLID_582_" class="st4" points="146.1,89.9 139.6,86.1 133.8,94.9 140.3,98.6 				"/>
				<polygon id="XMLID_581_" class="st4" points="156.6,103.6 150.1,99.9 142.7,103.2 149.2,107 				"/>
				<polygon id="XMLID_580_" class="st1" points="126.6,155.5 120.1,151.8 119.3,143.7 125.8,147.5 				"/>
				<polygon id="XMLID_576_" class="st1" points="103,149.6 109.5,153.4 114.1,144 107.6,140.2 				"/>
				<path id="XMLID_524_" class="st2" d="M156.6,113v-9.3l-7.4,3.3c-0.4-1.7-1.1-3.2-2-4.4l4.7-9.4l-5.7-3.3l-5.8,8.8
					c-1.5-0.1-3.1,0-4.8,0.5l-0.8-8.1l-8.1,4.7l-0.8,9c-1.7,1.5-3.3,3.2-4.8,5.1l-5.8-2l-5.7,9.9l4.7,4c-0.9,2.2-1.6,4.5-2,6.7
					l-7.4,5.2v9.3l7.4-3.3c0.4,1.7,1.1,3.2,2,4.4l-4.7,9.4l5.7,3.3l5.8-8.8c1.5,0.1,3.1,0,4.8-0.5l0.8,8.1l8.1-4.7l0.8-9
					c1.7-1.5,3.3-3.2,4.8-5.1l5.8,2l5.7-9.9l-4.7-4c0.9-2.2,1.6-4.5,2-6.7L156.6,113z M130.6,136.2c-6.2,3.6-11.2,0.7-11.2-6.5
					c0-7.1,5-15.8,11.2-19.4c6.2-3.6,11.2-0.7,11.2,6.5C141.9,123.9,136.8,132.6,130.6,136.2z"/>
				<polygon id="XMLID_559_" class="st4" points="114.5,106 121,109.8 115.2,107.7 108.7,104 				"/>
				
					<rect id="XMLID_563_" x="103.4" y="107.1" transform="matrix(0.4996 -0.8662 0.8662 0.4996 -41.4157 149.9286)" class="st4" width="11.4" height="7.5"/>
				<polygon id="XMLID_564_" class="st1" points="103,113.9 109.5,117.6 114.1,121.6 107.6,117.9 				"/>
				<polygon id="XMLID_574_" class="st4" points="105.6,124.6 112.1,128.4 104.7,133.6 98.2,129.8 				"/>
				<polygon id="XMLID_575_" class="st1" points="98.2,129.8 104.7,133.6 104.7,142.9 98.2,139.2 				"/>
				<polygon id="XMLID_602_" class="st4" points="134.7,91 128.2,87.3 120.1,91.9 126.6,95.7 				"/>
			</g>
		</g>
	</g>
</g>
<g id="Designed_by_Freepik">
</g>
</svg>
