<?xml version="1.0" encoding="utf-8"?>
<!-- Generator: Adobe Illustrator 22.1.0, SVG Export Plug-In . SVG Version: 6.00 Build 0)  -->
<svg version="1.1" xmlns="http://www.w3.org/2000/svg" xmlns:xlink="http://www.w3.org/1999/xlink" x="0px" y="0px"
	 viewBox="0 0 500 500" style="enable-background:new 0 0 500 500;" xml:space="preserve">
<style type="text/css">
	.st0{fill:#EFEBEB;}
	.st1{opacity:0.33;fill:#DDCACA;}
	.st2{fill:#B3ADEC;}
	.st3{fill:#78BA9A;}
	.st4{fill:#FFA938;}
	.st5{fill:#E1806D;}
	.st6{fill:#6756AD;}
	.st7{fill:#37366A;}
	.st8{font-family:'Montserrat-Regular';}
	.st9{font-size:6.0268px;}
	.st10{fill:#A43F60;}
	.st11{fill:#F3F4E9;}
	.st12{font-size:4.4893px;}
	.st13{opacity:0.57;}
	.st14{font-size:4.1015px;}
	.st15{fill:none;stroke:#37366A;stroke-width:0.5;stroke-miterlimit:10;}
	.st16{opacity:0.52;}
	.st17{fill:none;stroke:#50C3E2;stroke-width:0.5;stroke-miterlimit:10;}
	.st18{opacity:0.25;fill:#6756AD;}
	.st19{fill:#F5BA9A;}
	.st20{fill:#594656;}
	.st21{fill:#B96944;}
	.st22{fill:#53648C;}
	.st23{fill:#5D95BA;}
	.st24{fill:#8FCAEC;}
	.st25{fill:#F49E78;}
	.st26{fill:#514540;}
	.st27{opacity:0.28;}
	.st28{fill:#F28279;}
</style>
<g id="Background">
	<rect class="st0" width="500" height="500"/>
</g>
<g id="Objects">
	<g>
		<path class="st1" d="M60.5,149.2l111.5-0.3l-28.4-5.8c0,0,1.2-31.9-12.8-25.5c-13.9,6.4-14.5,20.3-14.5,20.3s-5.2-12.8-12.8-8.1
			c-7.5,4.6-11,12.8-11,12.8s-2.7-9.2-7.5-9.7c-4.1-0.4-12,8.3-16.1,13.2L60.5,149.2z"/>
		<path class="st1" d="M367.1,201l92-0.3l-23.5-4.3c0,0,1-23.7-10.5-19c-11.5,4.7-12,15.1-12,15.1s-4.3-9.5-10.5-6
			c-6.2,3.4-9.1,9.5-9.1,9.5s-2.2-6.8-6.2-7.2c-3.4-0.3-9.9,6.2-13.3,9.8L367.1,201z"/>
		<path class="st1" d="M217.4,69.2l92-0.3L286,64.1c0,0,1-26.3-10.5-21.1c-11.5,5.3-12,16.8-12,16.8s-4.3-10.5-10.5-6.7
			c-6.2,3.8-9.1,10.5-9.1,10.5s-2.2-7.6-6.2-8c-3.4-0.4-9.9,6.8-13.3,10.9L217.4,69.2z"/>
	</g>
	<g>
		<path class="st2" d="M379.2,53.3l-7,2.4l-3-8.7c-5.6-16.1-23.3-24.7-39.4-19.1c-16.1,5.6-24.7,23.3-19.1,39.4l3,8.7l-7,2.4
			c-5.5,1.9-8.4,7.9-6.5,13.4l19.7,56.9c1.9,5.5,8,8.5,13.4,6.6l72.4-25.1c5.5-1.9,8.5-8,6.6-13.5l-19.7-56.9
			C390.8,54.3,384.8,51.3,379.2,53.3z M324,62.6c-3.1-8.8,1.6-18.5,10.4-21.6c8.8-3.1,18.5,1.6,21.6,10.5l3,8.7l-32,11.1L324,62.6z
			 M366,114.5l5,14.5c0.2,0.6-0.2,1.2-0.8,1.5l-7,2.4c-0.5,0.2-1.2-0.1-1.4-0.7l-5-14.5c-5.4-0.2-10.4-3.6-12.3-9.1
			c-2.4-7,1.3-14.7,8.3-17.2c7-2.4,14.7,1.3,17.2,8.3C371.9,105.2,370.1,111,366,114.5z"/>
		<g>
			<path class="st3" d="M331.3,334.1c-1.7-3.4,2.3-6.9,6-7.6c3.7-0.7,7.9-0.2,10.9-2.5c3.9-3.1,3.7-9.9,8.1-12.4
				c3.5-2,8.2-0.1,11.9-1.7c4.6-2,5.9-8.4,10.4-10.6c3.6-1.7,8.3,0.2,10.2,3.8c1.8,3.6,1,8.1-1.6,11.2c-2,2.4-5,4.1-6.2,7
				c-1.9,4.5,1.1,9.9-0.7,14.5c-3.3,8.4-18.9,5.9-21.6,14.5c-0.6,1.9-0.3,4-0.5,6c-0.5,6-4.7,11.2-9.9,14.2c-5.2,3-11.3,4-17.3,4.4
				c-2.4,0.2-5,0.2-7.2-0.9c-2-1.1-3.5-3-4.6-5C312.1,356,309.2,339,331.3,334.1"/>
		</g>
		<g>
			<path class="st4" d="M216.2,327.2c3.9-2.6,1.7-8.8-1.9-11.8c-3.6-2.9-8.4-4.9-10.1-9.2c-2.3-5.7,2-12.9-1.2-18.2
				c-2.5-4.3-8.7-5-11.7-8.9c-3.8-4.9-1.3-12.5-4.8-17.6c-2.8-4-9.1-4.8-13.2-2.1c-4.1,2.7-6,8.1-5.1,12.9c0.7,3.8,2.8,7.4,2.4,11.2
				c-0.6,6-7.2,10-8,15.9c-1.5,11,16.7,17.7,14.4,28.6c-0.5,2.4-2,4.5-3.1,6.7c-3.1,6.7-1.7,14.8,2,21.1c3.8,6.3,9.7,11.1,15.8,15.1
				c2.5,1.7,5.2,3.3,8.2,3.4c2.8,0.1,5.5-1.1,7.9-2.6C223.5,362.1,236.9,345.8,216.2,327.2"/>
		</g>
		<g>
			<g>
				<path class="st5" d="M317.4,341c5.4-2.3,10.3-6.6,14.3-10.8c10.9-11.2,17.6-25.9,21.2-41c3.2-13.7,3.9-27.8,3.3-41.7
					c-0.1-1.2-1.9-1.2-1.8,0c1.5,31.4-4.7,69.9-32.8,89c-1.6,1.1-3.2,2.1-5,2.9C315.4,339.9,316.4,341.5,317.4,341L317.4,341z"/>
			</g>
			<path class="st5" d="M353.2,284c0,0,1.8-10.2,15.3-11.8C368.4,272.2,363.5,284.2,353.2,284z"/>
			<path class="st5" d="M348.7,299c0,0,4.1-9.5,17.6-7.9C366.3,291.1,358.7,301.6,348.7,299z"/>
			<path class="st5" d="M343,312.2c0,0,6.1-8.3,18.9-3.8C361.9,308.5,352.2,317.1,343,312.2z"/>
			<path class="st5" d="M355.2,268.2c0,0,1.7-10,15-11.6C370.2,256.6,365.4,268.4,355.2,268.2z"/>
			<path class="st5" d="M355.4,250.8c0,0-7.5-6.8-1.8-18.9C353.6,231.9,361,242.3,355.4,250.8z"/>
			<path class="st5" d="M355.5,261.1c0,0-10-1.8-11.4-15.1C344,246,355.8,250.9,355.5,261.1z"/>
			<path class="st5" d="M354.5,276.3c0,0-10-1.8-11.4-15.1C343,261.2,354.8,266.2,354.5,276.3z"/>
			<path class="st5" d="M351.9,290.6c0,0-9.8-2.5-10.4-15.9C341.5,274.7,352.9,280.5,351.9,290.6z"/>
			<path class="st5" d="M347.3,304.8c0,0-9.8-2.5-10.4-15.9C337,289,348.4,294.7,347.3,304.8z"/>
		</g>
		<g>
			<path class="st6" d="M319.2,376.8H218c-11.7,0-21.1-9.5-21.1-21.1V116.7c0-11.7,9.5-21.1,21.1-21.1h101.1
				c11.7,0,21.1,9.5,21.1,21.1v238.9C340.3,367.3,330.8,376.8,319.2,376.8z"/>
			<path class="st0" d="M318.9,366.8H218.3c-8.2,0-14.8-6.6-14.8-14.8V118.6c0-8.2,6.6-14.8,14.8-14.8h100.6
				c8.2,0,14.8,6.6,14.8,14.8V352C333.7,360.2,327.1,366.8,318.9,366.8z"/>
			<path class="st6" d="M307.6,103.8h-8.5c-2.6,0-4.7,2.1-4.7,4.7v3.4c0,2.6-2.1,4.7-4.7,4.7h-37.8c-2.6,0-4.7-2.1-4.7-4.7v-3.4
				c0-2.6-2.1-4.7-4.7-4.7h-24v-2.4h89.1V103.8z"/>
			<g>
				<g>
					<g>
						<path class="st7" d="M272.2,144.4c0.6-0.3,0.9-0.9,0.9-1.5c0-1-0.8-1.8-1.8-1.8c-1,0-1.8,0.8-1.8,1.8c0,0.7,0.4,1.2,0.9,1.5
							c-1.1,0.4-1.9,1.4-1.9,2.6v1.4h5.5V147C274.1,145.8,273.3,144.7,272.2,144.4z"/>
						<g>
							<text transform="matrix(1 0 0 1 248.0692 158.0378)" class="st7 st8 st9">Create Account</text>
						</g>
					</g>
					<g>
						<path class="st10" d="M294,328.3h-52.2c-0.5,0-1-0.4-1-1v-10.2c0-0.5,0.4-1,1-1H294c0.5,0,1,0.4,1,1v10.2
							C295,327.8,294.6,328.3,294,328.3z"/>
						<g>
							<text transform="matrix(1 0 0 1 258.579 323.508)" class="st11 st8 st12">Register</text>
						</g>
					</g>
					<g>
						<g class="st13">
							<text transform="matrix(1 0 0 1 221.8573 174.3825)" class="st7 st8 st14">Email Address</text>
						</g>
						<g>
							<text transform="matrix(1 0 0 1 226.4677 187.7697)" class="st7 st8 st14">youremail@gmail.c</text>
						</g>
						<path class="st15" d="M318.2,193.8h-93.6c-1.5,0-2.8-1.2-2.8-2.8v-9.4c0-1.5,1.2-2.8,2.8-2.8h93.6c1.5,0,2.8,1.2,2.8,2.8v9.4
							C320.9,192.5,319.7,193.8,318.2,193.8z"/>
					</g>
					<g>
						<g>
							<g class="st16">
								<text transform="matrix(1 0 0 1 221.8573 207.6144)" class="st7 st8 st14">Country</text>
							</g>
							<g>
								<g>
									<text transform="matrix(1 0 0 1 226.4677 220.8722)" class="st7 st8 st14">Your text</text>
								</g>
								<path class="st15" d="M318.2,227.1h-93.6c-1.5,0-2.8-1.2-2.8-2.8V215c0-1.5,1.2-2.8,2.8-2.8h93.6c1.5,0,2.8,1.2,2.8,2.8v9.4
									C320.9,225.9,319.7,227.1,318.2,227.1z"/>
							</g>
						</g>
					</g>
					<g>
						<g>
							<g class="st16">
								<text transform="matrix(1 0 0 1 221.8573 242.7023)" class="st7 st8 st14">City</text>
							</g>
							<g>
								<g>
									<text transform="matrix(1 0 0 1 226.4677 255.9611)" class="st7 st8 st14">Your City</text>
								</g>
								<path class="st15" d="M318.2,262.2h-93.6c-1.5,0-2.8-1.2-2.8-2.8V250c0-1.5,1.2-2.8,2.8-2.8h93.6c1.5,0,2.8,1.2,2.8,2.8v9.4
									C320.9,261,319.7,262.2,318.2,262.2z"/>
							</g>
						</g>
					</g>
					<g>
						<g>
							<g class="st16">
								<text transform="matrix(1 0 0 1 221.8573 277.9621)" class="st7 st8 st14">Password</text>
							</g>
							<g>
								<g>
									<text transform="matrix(1 0 0 1 226.4677 291.2199)" class="st7 st8 st14">Entry password</text>
								</g>
								<path class="st15" d="M318.2,297.5h-93.6c-1.5,0-2.8-1.2-2.8-2.8v-9.4c0-1.5,1.2-2.8,2.8-2.8h93.6c1.5,0,2.8,1.2,2.8,2.8
									v9.4C320.9,296.2,319.7,297.5,318.2,297.5z"/>
							</g>
						</g>
					</g>
				</g>
				<line class="st17" x1="267.1" y1="182.9" x2="267.1" y2="188.1"/>
			</g>
		</g>
	</g>
	<g>
		<path class="st18" d="M318.2,419.4c0-1.2-28.5-2.1-63.7-2.1c-35.2,0-63.7,0.9-63.7,2.1c0,1.2,28.5,2.1,63.7,2.1
			C289.7,421.5,318.2,420.5,318.2,419.4z"/>
		<g>
			<path class="st19" d="M261.2,284.5c0,0,6.3,9.8,7.8,5.5c1.4-4.2,2.3-6.8,2.3-6.8s-1.8-2.9-2.8-2c-1,0.9-2.3-0.8-2.3-0.8
				L261.2,284.5z"/>
			<g>
				<path class="st19" d="M292.5,233.9l2.6-15.2c1.7-0.6,3.5-1.9,2.9-3.9c-0.3-1-1.1-1.6-2.1-1.9c-0.4-0.1-2.2-0.7-2.3,0
					c0,0,1-5.5,1-5.5l-17.8-8.6c0,0-1.6,10.9-1.6,11c0-0.2-1.7-0.6-2-0.5c-0.9,0.1-1.8,0.9-2.1,1.7c-0.9,2.1,0.9,4.7,3.1,4.7
					c0,0,0.3,4.9,1.4,6.6c1.1,1.7,6.4,2.9,6.4,2.9l-0.6,6.6L292.5,233.9z"/>
			</g>
			<g>
				<path class="st4" d="M298.6,235.2c-8.1-2.3-19.4-4.2-19.4-4.2l-7.5,53.4l31.6-1L298.6,235.2z"/>
			</g>
			<g>
				<path class="st4" d="M298.6,235.2c10.5,2.8,20.9,4.8,31.7,6c-2.4-11-3.7-19.3-6.9-28.6c3-0.8,8.9-2.3,11.9-3
					c0,0,10,34.7,6.9,39.3c-5.1,7.9-30.8,2.7-30.8,2.7l-12.1-2.2L298.6,235.2z"/>
			</g>
			<g>
				<path class="st4" d="M244.4,246.9c0,0,33.9-16.6,35.5-16c1.6,0.6,2.9,8.3,2.9,8.3s-12.3,7.8-31.3,16.7l17.3,23.6l-8.6,6.2
					c0,0-23.8-26.7-22.9-32.2C238,249.2,244.4,246.9,244.4,246.9z"/>
			</g>
			<path class="st19" d="M334.8,209.6c0,0-1.4-9.8-1.6-10.1c-0.2-0.3-0.2-2-2.7-1.6c0,0-0.2-3.1-1.6-3.2c-1.5-0.1-3.1,0.3-3.1,0.3
				s-1.6-8-2.7-9.4c-1.2-1.5-2.8,2.5-0.3,12.2c0,0,1.4,6.6,1,6.9c-1.1,0.7-2.7,0.5-4.8-3.1c-2.3-3.9-5.1-2.6-3.7,0.4
				c1.4,3,3.4,6.9,4.7,8c1.3,1.1,4,0.9,4,0.9l0.4,1.3L334.8,209.6z"/>
			<g>
				<path class="st20" d="M303.3,283.4c-3.8,57.8-16.7,129.2-16.7,129.2l12.7,5.4h-27l17.7-126.2h-6.1L239.2,418h-26.9l15.3-5.6
					l44.7-132.2L303.3,283.4z"/>
			</g>
			<path class="st21" d="M296.8,213.3c1.5-3,3.3-10.3-1.3-12.4c-2.4-1.1-4.8-2.6-6.7-3.8c-2.8-1.9-6.3-2.6-9.5-1.7
				c-0.5,0.1-1,0.3-1.5,0.6c-3.2,1.6-5.4,10.1-5.4,10.1l3.1,0.8c0,0,3.5,15.6,9.3,18.8l5.8,1.2l3.4,0.8L296.8,213.3z"/>
			<g>
				<g>
					<path class="st21" d="M292.6,199.8c0-0.9,0-1.9-0.1-2.8c0-0.4-0.6-0.4-0.6,0c0.1,0.9,0.1,1.9,0.1,2.8
						C292,200.2,292.6,200.2,292.6,199.8L292.6,199.8z"/>
				</g>
			</g>
			<g>
				<g>
					<path class="st21" d="M292.6,199.9c0.4-0.2,0.5-0.7,0.7-1.1c0.3-0.5,0.6-1,0.9-1.4c0.2-0.3-0.3-0.6-0.5-0.3
						c-0.3,0.4-0.5,0.7-0.8,1.1c-0.2,0.3-0.4,1-0.7,1.2C292,199.6,292.3,200.2,292.6,199.9L292.6,199.9z"/>
				</g>
			</g>
		</g>
	</g>
	<g>
		<path class="st18" d="M182.4,404c0-1.2-28.5-2.1-63.7-2.1S55,402.9,55,404c0,1.2,28.5,2.1,63.7,2.1S182.4,405.2,182.4,404z"/>
		<g>
			<path class="st20" d="M140.6,182.7c-1.2-0.3-2.3-0.3-3.8-0.5c-2.3-0.2-4.4,1.3-6.1,2.8c-1.7,1.5-3,3.5-4.1,5.5
				c-1.1,2-2.2,4.4-1.5,6.7c0.2,0.6,0.5,1.1,0.4,1.7c0,1.9-2.6,2.6-3.4,4.2c-1,2.1,1,4.9-0.3,6.7c-0.7,0.9-2,1.2-2.6,2.1
				c-0.5,0.7-0.5,1.7-0.4,2.6c0,0.2,0,0.4,0.2,0.5c0.1,0.1,0.3,0.1,0.4,0.1c7.3,0.7,14.5-0.9,21.8-0.2c0.9,0.1,1.8,0.2,2.6,0.1
				c1.3-0.1,2.4-0.7,3.6-1.2c6.3-2.9,12.6-3.6,18.8-6.8c0.3-0.1,0.5-0.3,0.7-0.5c0.1-0.2,0.1-0.4,0.1-0.7c-0.2-1.6-1.4-3.1-2.9-3.6
				c-1.6-0.5-3.5-0.1-4.9-1.1c-1-0.7-1.3-2-1.4-3.2c-0.3-2.5,0-5.3-1.8-7c-1.4-1.3-3.6-1.5-5-2.8c-0.8-0.8-1.2-1.8-1.9-2.7
				C147.2,182.9,144,181.4,140.6,182.7"/>
			<g>
				<path class="st22" d="M128.4,267.1L87.7,395.9l-16,6.2h23.8l45.9-121.3c0.3-0.8,1-1.3,1.9-1.3l0,0c1.2,0,2.1,1,2,2.2
					l-12.1,120.4h24.1l-16.1-5.3c0,0,15-70,18.3-91.9c3.3-21.9-1.5-37.4-1.5-37.4S142.4,262.5,128.4,267.1z"/>
			</g>
			<g>
				<path class="st5" d="M128.9,220.8c3.7-3.9,18.6-4.3,23.9-2.1c5.4,2.2,15.2,30.7,15.2,30.7l-9.8,3.9l-6.1-23.8l-19.1-2.6
					L128.9,220.8z"/>
			</g>
			<g>
				<path class="st5" d="M154,232.8c0,0,1.7-3.9,2-7c0.4-3-3.8-6-3.8-6l-22.4,5.8l1.4,13.4l-3.3,27l28.5,1.1l-2.9-34.1"/>
			</g>
			<g>
				<path class="st23" d="M131.5,233.6c-0.1,0-0.2,0-0.3-0.1c-0.2-0.2-0.2-0.4-0.1-0.6l1.6-2.1c0.2-0.2,0.4-0.2,0.6-0.1
					c0.2,0.2,0.2,0.4,0.1,0.6l-1.6,2.1C131.8,233.5,131.6,233.6,131.5,233.6z"/>
			</g>
			<g>
				<path class="st24" d="M117.2,270.6c1.7-1,3.4-2,5.1-3"/>
			</g>
			<g>
				<path class="st19" d="M139.5,217.5c-0.3-3,1.2-6-3.6-7.9c-6.6-2.7-8.1-25.5,3.9-25.6c12-0.1,11.4,15,11.3,19.5
					c0,4.5-4,5.6-5,7.2c-1,1.6-0.1,6.7-0.1,6.7H139.5z"/>
			</g>
			<g>
				<path class="st19" d="M132.7,200.2c0,1.5-1,2.7-2.3,2.7c-1.3,0-2.3-1.2-2.3-2.7c0-1.5,1-2.7,2.3-2.7
					C131.6,197.6,132.7,198.8,132.7,200.2z"/>
			</g>
			<g>
				<ellipse class="st19" cx="151.9" cy="198.2" rx="2.3" ry="2.7"/>
			</g>
			<path class="st2" d="M201.4,246.6l-3.6-9L97.5,277c-3.9-5.2-10.1-8.6-17.1-8.6c-11.7,0-21.3,9.5-21.3,21.3s9.5,21.3,21.3,21.3
				s21.3-9.5,21.3-21.3c0-0.9-0.1-1.7-0.2-2.6l76.5-31l4.2,9.2l9.3-4.3l-3.3-7.3l3-1.6l3.6,7.1l6.7-3.6l-3.7-7.5L201.4,246.6z
				 M80.4,303.5c-7.7,0-13.9-6.2-13.9-13.9c0-7.7,6.2-13.9,13.9-13.9c7.7,0,13.9,6.2,13.9,13.9C94.2,297.3,88,303.5,80.4,303.5z"/>
			<g>
				<path class="st5" d="M128.9,220.8c0,0-25.3,22.5-25.5,26.7c-0.1,4.2,14.9,26.2,14.9,26.2l7.5-4.8l-10.5-19.7l17.1-16.4
					c0,0,0.6,3.8,1.9,4.8l0.8-15L128.9,220.8z"/>
			</g>
			<path class="st20" d="M148.7,189.3c-3.3,0.2-17.9,1.7-17.9,1.7s2.1-8.8,8.9-9.1C148.7,181.4,148.7,189.3,148.7,189.3z"/>
			<path class="st20" d="M130.9,198.5c0,0,11.8-1.1,13.9-6.7c0,0,3.9,5,6.2,4.8c0,0,0.4-6.6-1.1-7.5s-19.6,0.9-19.6,0.9
				S129.9,194.3,130.9,198.5z"/>
			<path class="st19" d="M118.7,273.4c0,0,3.2,6.8,3.4,7s0.6,1.4,2.3,0.6c0,0,0.8,2.2,1.9,1.9c1.1-0.3,2.2-0.9,2.2-0.9
				s1.3,1.7,2.3,0.8c1.1-1.1,0.1-2.3-0.7-3.5c0,0-2.5-4.5-2.3-4.8c0.7-0.7,1.8-1,4.2,1.2c2.5,2.3,4.3,0.7,2.6-1.2
				c-1.7-1.9-4-4.3-5.2-4.8c-1.2-0.5-3.1,0.2-3.1,0.2l-0.6-0.8L118.7,273.4z"/>
			<path class="st5" d="M170.4,259.1c0,0-1.8,5.2-5,6c-3.2,0.9-20.9,4.5-20.9,4.5v-7L170.4,259.1z"/>
			<path class="st19" d="M144.5,263.4h-1.4c0,0-0.3-1-0.5-1.3c-0.6-0.9-8-1.8-7.9-0.9c0.1,1,1.4,1.2,4,1.7c0,0-9.8,2.4-8.9,3.2
				c0.9,0.8,7-1,7-1s-6.6,2.2-6.2,3.6c0.3,0.8,7-1.1,7-1.1s-6.8,2.4-5.6,3.3c1.2,0.8,8.8-1,9.5-1.3c0.7-0.3,1-1.7,1-1.7l1.8-0.3
				V263.4z"/>
			<g>
				<path class="st20" d="M139,179.2c0.3,1.1,0.4,2.4,1,3.4c0.3,0.4,0.9,0,0.6-0.4c-0.6-0.9-0.7-2.2-0.9-3.2
					C139.6,178.5,138.9,178.7,139,179.2L139,179.2z"/>
			</g>
			<g>
				<path class="st20" d="M140.6,182.6c0.4-0.7,0.8-1.3,1.2-1.9c0.3-0.4-0.4-0.8-0.6-0.4c-0.4,0.6-0.8,1.3-1.2,1.9
					C139.7,182.7,140.3,183,140.6,182.6L140.6,182.6z"/>
			</g>
			<g>
				<path class="st25" d="M142,198c0,0.8,0,1.7,0.1,2.5c0.1,0.4,0,1.2,0.3,1.5c0.2,0.2,0.5,0.2,0.7,0.2c0.8,0.1,1.6,0.2,2.4,0.3
					c0-0.1-0.1-0.2-0.1-0.3c-0.7,0.7-1.4,1.1-2.3,1.5c-0.2,0.1,0,0.4,0.2,0.3c0.9-0.4,1.7-0.9,2.4-1.6c0.1-0.1,0-0.3-0.1-0.3
					c-0.8-0.1-2.6,0-3-0.9c-0.4-0.8-0.2-2.4-0.2-3.3C142.3,197.8,142,197.8,142,198L142,198z"/>
			</g>
			<g>
				<path class="st26" d="M145.7,200.6c0.1-0.8-0.4-2.8,0.6-3.2c0.9-0.4,1.5,0.4,1.7,1.2c0.1,0.5,0.2,1,0.3,1.5
					c0,0.2,0.4,0.1,0.4-0.1c-0.2-1.2-0.3-3.3-2.1-3c-1.7,0.2-1.1,2.6-1.2,3.6C145.3,200.8,145.7,200.8,145.7,200.6L145.7,200.6z"/>
			</g>
			<g>
				<path class="st26" d="M136.3,201.1c0.1-0.8-0.4-2.8,0.6-3.2c0.9-0.4,1.5,0.4,1.7,1.2c0.1,0.5,0.2,1,0.3,1.5
					c0,0.2,0.4,0.1,0.4-0.1c-0.2-1.2-0.3-3.3-2.1-3c-1.7,0.2-1.1,2.6-1.2,3.6C135.9,201.3,136.3,201.3,136.3,201.1L136.3,201.1z"/>
			</g>
			<g>
				<path class="st25" d="M138.8,203.2c0.4,3,5.6,3.7,7.5,1.8c0.2-0.2-0.1-0.4-0.3-0.3c-1.6,1.5-6.5,1.2-6.8-1.6
					C139.1,202.9,138.7,202.9,138.8,203.2L138.8,203.2z"/>
			</g>
			<g>
				<path class="st25" d="M138.7,203.7c0.1-0.3,0.4-0.5,0.8-0.5c0.2,0,0.3-0.3,0.1-0.4c-0.5-0.1-1,0.2-1.2,0.7
					C138.3,203.8,138.6,203.9,138.7,203.7L138.7,203.7z"/>
			</g>
			<g class="st27">
				<path class="st28" d="M138.2,202c0.2,0.4-0.6,1.1-1.7,1.3c-0.5,0.1-1.1,0.1-1.4,0c-0.3-0.1-0.5-0.2-0.6-0.4c0-0.1,0-0.2,0-0.4
					c0.1-0.1,0.2-0.3,0.4-0.4c0.4-0.2,0.8-0.3,1.3-0.5C137.2,201.5,138.1,201.6,138.2,202z"/>
			</g>
			<g class="st27">
				<path class="st28" d="M150.3,201.1c0.2,0.4-0.6,1.1-1.7,1.3c-0.5,0.1-1.1,0.1-1.4,0c-0.3-0.1-0.5-0.2-0.6-0.4c0-0.1,0-0.2,0-0.4
					c0.1-0.1,0.2-0.3,0.4-0.4c0.4-0.2,0.8-0.3,1.3-0.5C149.2,200.7,150.1,200.7,150.3,201.1z"/>
			</g>
			<g>
				<path class="st25" d="M130.2,198.8c-0.7,0-1.1,0.7-1,1.4c0.1,0.7,0.5,1.2,1.2,1.3c0.2,0,0.2-0.3,0-0.4c-1-0.1-1.3-1.9-0.2-1.9
					C130.4,199.2,130.4,198.8,130.2,198.8L130.2,198.8z"/>
			</g>
			<g>
				<path class="st25" d="M129.2,199.8c0.3,0.4,0.9,0.7,1.4,0.6c0.2,0,0.2-0.4,0-0.4c-0.5,0-0.9-0.2-1.2-0.5
					C129.3,199.4,129.1,199.7,129.2,199.8L129.2,199.8z"/>
			</g>
			<g>
				<path class="st25" d="M151.7,199.5c0.8,0.2,1.2-0.5,1.3-1.2c0.1-0.8-0.4-1.5-1.2-1.6c-0.2,0-0.2,0.3,0,0.4c0.5,0,0.9,0.6,0.8,1
					c0,0.5-0.3,1.2-0.9,1C151.5,199.1,151.4,199.4,151.7,199.5L151.7,199.5z"/>
			</g>
			<g>
				<path class="st25" d="M151.9,198.4c0.3-0.3,0.6-0.7,0.6-1.2c0-0.2-0.3-0.3-0.4-0.1c-0.1,0.4-0.2,0.7-0.5,1
					C151.5,198.3,151.7,198.6,151.9,198.4L151.9,198.4z"/>
			</g>
		</g>
	</g>
</g>
<g id="Designed_by_freepik">
</g>
</svg>
